<?xml version="1.0" standalone="no"?>
<!DOCTYPE svg PUBLIC "-//W3C//DTD SVG 20010904//EN"
 "http://www.w3.org/TR/2001/REC-SVG-20010904/DTD/svg10.dtd">
<svg version="1.0" xmlns="http://www.w3.org/2000/svg"
 width="1200.000000pt" height="1200.000000pt" viewBox="0 0 1200.000000 1200.000000"
 preserveAspectRatio="xMidYMid meet">
    <metadata>
    Created by potrace 1.15, written by Peter Selinger 2001-2017
    </metadata>
    <g transform="translate(0.000000,1200.000000) scale(0.100000,-0.100000)"
    fill="#faebd7" stroke="none">
        <path d="M4264 9677 c-217 -165 -218 -165 -397 -310 -786 -636 -1234 -1223
        -1405 -1842 -62 -225 -76 -335 -77 -605 0 -255 7 -325 56 -525 147 -602 553
        -1079 1065 -1253 167 -57 280 -75 464 -76 194 0 298 16 471 74 650 216 1138
        845 1261 1624 26 167 28 485 4 651 -92 637 -407 1288 -1046 2160 -73 99 -144
        197 -159 217 -14 21 -28 37 -31 37 -3 0 -95 -68 -206 -152z m1032 -2522 c94
        -54 162 -161 206 -325 20 -75 23 -108 23 -275 0 -154 -3 -199 -17 -240 -10
        -27 -25 -86 -34 -130 -37 -187 -109 -323 -231 -437 -80 -74 -124 -92 -219 -93
        -72 0 -85 3 -130 30 -141 88 -256 365 -393 955 -32 134 -92 423 -89 426 2 1
        47 -53 100 -119 249 -314 408 -438 500 -391 56 29 81 112 103 339 29 291 56
        330 181 260z"/>
        <path d="M7199 8997 c-165 -121 -353 -267 -464 -362 -123 -105 -342 -321 -432
        -427 -437 -514 -574 -1095 -393 -1658 73 -228 245 -472 429 -610 439 -329
        1035 -262 1436 161 256 270 395 607 412 999 21 474 -163 970 -599 1620 -145
        216 -252 369 -258 369 -3 0 -62 -41 -131 -92z m-644 -1991 c166 -98 210 -472
        88 -750 -72 -165 -178 -259 -290 -259 -156 0 -254 194 -308 611 -9 68 -15 139
        -13 157 l3 35 62 -85 c68 -93 131 -145 174 -145 22 0 34 9 53 38 28 43 39 80
        65 225 11 58 28 126 39 151 19 41 24 46 53 46 18 0 51 -11 74 -24z"/>
        <path d="M8570 5960 c-146 -37 -508 -129 -805 -205 -297 -75 -670 -170 -830
        -210 -159 -41 -461 -117 -670 -170 -209 -53 -528 -134 -710 -180 -181 -46
        -492 -125 -690 -175 -198 -50 -526 -133 -730 -185 -203 -52 -530 -134 -725
        -184 -1119 -283 -1316 -334 -1328 -340 -9 -5 10 -25 62 -65 l75 -58 168 36
        c189 41 1300 280 1408 303 151 32 1171 251 1315 283 52 11 124 27 160 35 680
        146 1117 240 1165 250 33 8 323 70 645 139 322 69 857 184 1190 256 333 72
        625 135 650 140 25 5 86 18 135 29 50 11 159 34 243 52 83 18 152 36 152 41 0
        4 -4 8 -9 8 -5 0 -143 61 -306 135 -163 74 -297 135 -298 134 -1 0 -121 -31
        -267 -69z"/>
    </g>
</svg>